<?xml version="1.0" encoding="UTF-8"?>
<svg width="96" height="96" viewBox="0 0 96 96" fill="none" xmlns="http://www.w3.org/2000/svg">
  <!-- Background circle -->
  <circle cx="48" cy="48" r="44" fill="#1B4332" stroke="#52B788" stroke-width="4"/>
  
  <!-- Dashboard icons -->
  <!-- Bar chart 1 -->
  <rect x="18" y="42" width="8" height="16" fill="#52B788" rx="2"/>
  <rect x="18" y="38" width="8" height="4" fill="#95D5B2" rx="1"/>
  
  <!-- Bar chart 2 -->
  <rect x="30" y="35" width="8" height="23" fill="#52B788" rx="2"/>
  <rect x="30" y="30" width="8" height="5" fill="#95D5B2" rx="1"/>
  
  <!-- Bar chart 3 -->
  <rect x="42" y="25" width="8" height="33" fill="#52B788" rx="2"/>
  <rect x="42" y="20" width="8" height="5" fill="#95D5B2" rx="1"/>
  
  <!-- Bar chart 4 -->
  <rect x="54" y="32" width="8" height="26" fill="#52B788" rx="2"/>
  <rect x="54" y="28" width="8" height="4" fill="#95D5B2" rx="1"/>
  
  <!-- Bar chart 5 -->
  <rect x="66" y="40" width="8" height="18" fill="#52B788" rx="2"/>
  <rect x="66" y="36" width="8" height="4" fill="#95D5B2" rx="1"/>
  
  <!-- Grid lines -->
  <line x1="14" y1="62" x2="78" y2="62" stroke="#95D5B2" stroke-width="1"/>
  <line x1="14" y1="50" x2="78" y2="50" stroke="#95D5B2" stroke-width="1"/>
  <line x1="14" y1="38" x2="78" y2="38" stroke="#95D5B2" stroke-width="1"/>
</svg>